<svg xmlns="http://www.w3.org/2000/svg" width="400" height="300" viewBox="0 0 400 300">
  <defs>
    <linearGradient id="grad1" x1="0%" y1="0%" x2="100%" y2="100%">
      <stop offset="0%" style="stop-color:#10b981;stop-opacity:1" />
      <stop offset="100%" style="stop-color:#059669;stop-opacity:1" />
    </linearGradient>
    <linearGradient id="grad2" x1="0%" y1="0%" x2="100%" y2="100%">
      <stop offset="0%" style="stop-color:#6366f1;stop-opacity:1" />
      <stop offset="100%" style="stop-color:#4f46e5;stop-opacity:1" />
    </linearGradient>
  </defs>
  
  <!-- Background -->
  <rect width="400" height="300" fill="url(#grad1)" />
  
  <!-- AI Brain Icon -->
  <circle cx="200" cy="150" r="50" fill="url(#grad2)" />
  <path d="M175,150 Q200,120 225,150 Q200,180 175,150" stroke="white" stroke-width="3" fill="none" />
  <circle cx="190" cy="140" r="5" fill="white" />
  <circle cx="210" cy="140" r="5" fill="white" />
  <path d="M185,160 Q200,170 215,160" stroke="white" stroke-width="3" fill="none" />
  
  <!-- Circuit Pattern -->
  <path d="M50,50 L150,50 L150,100" stroke="white" stroke-width="2" opacity="0.2" fill="none" />
  <path d="M350,250 L250,250 L250,200" stroke="white" stroke-width="2" opacity="0.2" fill="none" />
  <circle cx="150" cy="100" r="5" fill="white" opacity="0.2" />
  <circle cx="250" cy="200" r="5" fill="white" opacity="0.2" />
  
  <!-- Decorative Elements -->
  <circle cx="100" cy="200" r="30" fill="white" opacity="0.1" />
  <circle cx="300" cy="100" r="25" fill="white" opacity="0.1" />
</svg>